<svg xmlns="http://www.w3.org/2000/svg" viewBox="0 0 64 64" width="64" height="64">
  <rect width="64" height="64" rx="4" fill="#121316"/>
  <rect x="4" y="4" width="56" height="56" rx="2" fill="none" stroke="#C5A059" stroke-width="2.5"/>
  <path d="M 32.1 45.89 C 30.49 45.89, 28.99 45.69, 27.6 45.29 C 26.21 44.88, 25.03 44.41, 24.07 43.87 L 22.79 45.16 L 21.21 45.16 L 20.97 35.65 L 22.56 35.65 C 22.92 36.55, 23.38 37.51, 23.94 38.51 C 24.49 39.51, 25.14 40.41, 25.87 41.21 C 26.62 42.04, 27.47 42.71, 28.4 43.23 C 29.33 43.75, 30.43 44.01, 31.68 44.01 C 33.36 44.01, 34.65 43.6, 35.54 42.78 C 36.44 41.96, 36.89 40.92, 36.89 39.67 C 36.89 38.64, 36.51 37.78, 35.75 37.08 C 34.99 36.38, 33.81 35.77, 32.21 35.26 C 31.17 34.93, 30.22 34.62, 29.35 34.33 C 28.47 34.05, 27.66 33.76, 26.89 33.46 C 25.12 32.75, 23.81 31.74, 22.95 30.43 C 22.09 29.12, 21.66 27.65, 21.66 26.03 C 21.66 25, 21.88 24.01, 22.32 23.06 C 22.77 22.12, 23.42 21.26, 24.27 20.51 C 25.09 19.8, 26.13 19.23, 27.41 18.78 C 28.68 18.33, 30.07 18.11, 31.56 18.11 C 33.02 18.11, 34.39 18.32, 35.66 18.72 C 36.94 19.13, 37.94 19.54, 38.67 19.95 L 39.8 18.84 L 41.42 18.84 L 41.56 27.82 L 39.97 27.82 C 39.6 26.85, 39.16 25.86, 38.66 24.85 C 38.16 23.84, 37.63 23, 37.07 22.33 C 36.47 21.61, 35.77 21.04, 34.98 20.61 C 34.19 20.18, 33.26 19.97, 32.19 19.97 C 30.86 19.97, 29.77 20.35, 28.92 21.1 C 28.07 21.86, 27.65 22.79, 27.65 23.91 C 27.65 24.96, 28.02 25.82, 28.75 26.49 C 29.49 27.16, 30.64 27.75, 32.19 28.26 C 33.11 28.57, 34.04 28.88, 35 29.19 C 35.95 29.49, 36.8 29.79, 37.54 30.08 C 39.33 30.77, 40.7 31.73, 41.63 32.95 C 42.56 34.17, 43.03 35.68, 43.03 37.49 C 43.03 38.63, 42.76 39.73, 42.23 40.8 C 41.7 41.86, 40.98 42.75, 40.08 43.45 C 39.09 44.23, 37.95 44.84, 36.65 45.26 C 35.35 45.68, 33.83 45.89, 32.1 45.89 Z" fill="#C5A059"/>
</svg>